# xmcd
# Copyright (C) 1995-1998 Ti Kan
#
# Track frame offsets:
#       150
#       24375
#       37963
#       52766
#       71442
#       86126
#       102346
#       118074
#       134454
#       147819
#       161155
#       174595
#       190724
#
# Disc length: 2761 seconds
#
# Revision: 1
# Processed by: cddbd v1.5.2PL0 Copyright (c) Steve Scherf et al.
# Submitted via: CD-Transfer v1.0
#
DISCID=ac0ac70d
DTITLE=Erland and The Carnival - S. Thong, Erland
DYEAR=10
DGENRE=
TTITLE0=Love Is A Killing Thing
TTITLE1=My Name Is Carnival
TTITLE2=You Don't Have To Be Lonely
TTITLE3=Trouble In Mind
TTITLE4=Tramps And Hawkers
TTITLE5=Derby Ram, The
TTITLE6=Disturbed This Morning
TTITLE7=Was You Ever See
TTITLE8=Sweeter The Girl The Harder, The Harder I Fall, The
TTITLE9=Everything Came Too Easy
TTITLE10=One Morning Fair
TTITLE11=Gentle Gween
TTITLE12=Echoing Green, The
EXTD=
EXTT0=
EXTT1=
EXTT2=
EXTT3=
EXTT4=
EXTT5=
EXTT6=
EXTT7=
EXTT8=
EXTT9=
EXTT10=
EXTT11=
EXTT12=
PLAYORDER=
